/* XPM */
static char * icon_xpm[] = {
"32 32 4 1",
" 	c None",
".	c #00FF00",
"+	c #FFFFFF",
"@	c #FFFF00",
"           .....................",
"          . .                . .",
"         .  .               .  .",
"        .   .              .   .",
"       .    .             .    .",
"      .     .            .     .",
"     .      .      +++++.      .",
"    .       .      ++++.+      .",
"   .        .      +++.++      .",
"  .         .      ++.+++      .",
" .          .      +.++++      .",
".           .      .+++++      .",
"....................           .",
".           .      .           .",
".           .  @@  .           .",
".           . @@@@ .           .",
".           . @@@@ .           .",
".           .  @@  .           .",
".           .      .           .",
".      ++++++...................",
".      ++++++      .          . ",
".      ++++++      .         .  ",
".      ++++++      .        .   ",
".      ++++++      .       .    ",
".      ++++++      .      .     ",
".     .            .     .      ",
".    .             .    .       ",
".   .              .   .        ",
".  .               .  .         ",
". .                . .          ",
"..                 ..           ",
"....................            "};
